<svg xmlns="http://www.w3.org/2000/svg" x="0px" y="0px"
width="32" height="32"
viewBox="0 0 172 172"
style=" fill:#000000;"><g fill="none" fill-rule="nonzero" stroke="none" stroke-width="1" stroke-linecap="butt" stroke-linejoin="miter" stroke-miterlimit="10" stroke-dasharray="" stroke-dashoffset="0" font-family="none" font-weight="none" font-size="none" text-anchor="none" style="mix-blend-mode: normal"><path d="M0,172v-172h172v172z" fill="none"></path><g fill="#e08e5d"><path d="M148.40017,80.93317l-50.16667,-50.16667c-2.79858,-2.79858 -7.33508,-2.79858 -10.13367,0c-2.79858,2.79858 -2.79858,7.33508 0,10.13367l37.93317,37.93317h-97.36633c-3.956,0 -7.16667,3.21067 -7.16667,7.16667c0,3.956 3.21067,7.16667 7.16667,7.16667h97.36633l-37.93317,37.93317c-2.79858,2.79858 -2.79858,7.33508 0,10.13367c1.40108,1.40108 3.23217,2.09983 5.06683,2.09983c1.83467,0 3.66575,-0.69875 5.06683,-2.09983l50.16667,-50.16667c2.79858,-2.79858 2.79858,-7.33508 0,-10.13367z"></path></g></g></svg>