<svg xmlns="http://www.w3.org/2000/svg" x="0px" y="0px" width="30" height="30" viewBox="0 0 172 172" style=" fill:#000000;">
    <g fill="none" fill-rule="nonzero" stroke="none" stroke-width="1" stroke-linecap="butt" stroke-linejoin="miter" stroke-miterlimit="10" stroke-dasharray="" stroke-dashoffset="0" font-family="none" font-weight="none" font-size="none" text-anchor="none" style="mix-blend-mode: normal">
        <path d="M0,172v-172h172v172z" fill="none"></path>
        <g fill="#ffffff">
            <path d="M63.06667,11.46667c-6.33533,0 -11.46667,5.13133 -11.46667,11.46667v91.73333c0,6.33533 5.13133,11.46667 11.46667,11.46667h74.53333c6.33533,0 11.46667,-5.13133 11.46667,-11.46667v-65.93333c0,-1.51933 -0.60182,-2.97578 -1.67969,-4.05365l-31.53333,-31.53333c-1.07787,-1.07787 -2.53431,-1.67969 -4.05364,-1.67969zM108.93333,22.38464l29.21536,29.21536h-23.48203c-3.1648,0 -5.73333,-2.56853 -5.73333,-5.73333zM34.4,40.13333c-6.33533,0 -11.46667,5.13133 -11.46667,11.46667v91.73333c0,6.33533 5.13133,11.46667 11.46667,11.46667h74.53333c6.33533,0 11.46667,-5.13133 11.46667,-11.46667v-5.73333h-57.33333c-12.64773,0 -22.93333,-10.2856 -22.93333,-22.93333v-74.53333z"></path>
        </g>
    </g>
</svg>