<svg xmlns="http://www.w3.org/2000/svg" x="0px" y="0px" width="35" height="35" viewBox="0 0 172 172" style=" fill:#000000;">
    <g fill="none" fill-rule="nonzero" stroke="none" stroke-width="1" stroke-linecap="butt" stroke-linejoin="miter" stroke-miterlimit="10" stroke-dasharray="" stroke-dashoffset="0" font-family="none" font-weight="none" font-size="none" text-anchor="none" style="mix-blend-mode: normal">
        <path d="M0,172v-172h172v172z" fill="none"></path>
        <g fill="#ffffff">
            <path d="M86,0l-28.66667,28.66667l28.66667,28.66667v-21.5c27.65617,0 50.16667,22.50333 50.16667,50.16667c0,6.30667 -1.22371,12.32734 -3.35937,17.88867l10.86198,10.84798c4.33583,-8.6645 6.83073,-18.40232 6.83073,-28.73666c0,-35.561 -28.93183,-64.5 -64.5,-64.5zM28.33073,57.26335c-4.33583,8.6645 -6.83073,18.40232 -6.83073,28.73665c0,35.561 28.93183,64.5 64.5,64.5v21.5l28.66667,-28.66667l-28.66667,-28.66667v21.5c-27.65617,0 -50.16667,-22.50333 -50.16667,-50.16667c0,-6.30667 1.22371,-12.32734 3.35938,-17.88867z"></path>
        </g>
    </g>
</svg>